<?xml version="1.0" encoding="utf-8"?>
<!-- Generator: Adobe Illustrator 25.1.0, SVG Export Plug-In . SVG Version: 6.00 Build 0)  -->
<svg version="1.1" id="Layer_1" xmlns="http://www.w3.org/2000/svg" xmlns:xlink="http://www.w3.org/1999/xlink" x="0px" y="0px"
	 viewBox="0 0 199.8 115" style="enable-background:new 0 0 199.8 115;" xml:space="preserve">
<style type="text/css">
	.st0{fill:#F4E2E2;}
	.st1{fill:#463333;}
	.st2{font-family:'Castellar';}
	.st3{font-size:42.35px;}
	.st4{fill:none;stroke:#F4E2E2;stroke-miterlimit:10;}
	.st5{font-size:12px;}
</style>
<polygon class="st0" points="35.9,39.9 14.3,39.9 3.6,58.6 14.3,77.2 35.9,77.2 46.7,58.6 "/>
<path class="st0" d="M33.9,41.2c-0.1-0.2-0.4,0.1-0.5,0.1C33.6,41.6,33.9,41.2,33.9,41.2z"/>
<polygon class="st0" points="36.3,43.5 36.1,43.5 36.7,43.7 "/>
<path class="st0" d="M37.7,46c0.5-0.6-0.6-0.9-0.7-1.4l0.1-0.2l-0.6,0.1C36.9,45,37.7,45.6,37.7,46z"/>
<path class="st0" d="M37.2,48.2c0.2-0.2,0.4,0.2-0.1-0.4v0.1C37.1,48,37.1,48,37.2,48.2z"/>
<path class="st0" d="M37,47.9C36.9,47.7,36.9,48.2,37,47.9z"/>
<path class="st0" d="M37.9,49.1l-0.4-0.2c-0.1,0.2,0.1,0.5-0.1,0.4C37.7,49.6,37.8,49.4,37.9,49.1z"/>
<path class="st0" d="M38.5,49.1L38.3,49C38.3,49.1,38.3,49.1,38.5,49.1z"/>
<path class="st0" d="M37.9,48.7l0.4,0.3c0.1-0.1,0.3-0.2-0.2-0.1C38.4,48.8,38.1,48.8,37.9,48.7z"/>
<path class="st0" d="M37.9,48.5c0-0.3,0-0.6,0.4-0.4C37.8,47.5,37.4,47.8,37.9,48.5z"/>
<path class="st0" d="M38.4,45.8v-0.4l-0.3-0.1C38.3,45.4,38.2,45.9,38.4,45.8z"/>
<path class="st0" d="M38.8,51.5l0.4-0.4L39,50.9C39,51.1,38.9,51.3,38.8,51.5z"/>
<path class="st0" d="M39.3,51l0.4,0.3C39.5,50.9,39.4,50.9,39.3,51z"/>
<polygon class="st0" points="39.3,48.8 38.4,48.4 39.3,48.9 "/>
<polygon class="st0" points="39.7,53 39.3,52.9 39.9,53 "/>
<path class="st0" d="M40.3,53.9c-0.4,0-0.3,0.5-0.6,0.4c0.2,0.2,0.6,0.4,0.9,0.4C40.4,54.6,40.3,54.3,40.3,53.9z"/>
<path class="st0" d="M41.1,54.9c-0.1-0.1-0.3-0.1-0.5-0.2C40.7,54.8,40.9,54.9,41.1,54.9z"/>
<path class="st0" d="M40,52c-0.1,0.1-0.2,0.3-0.2,0.5L40,52C40.1,52,40.1,52,40,52z"/>
<path class="st0" d="M40.1,52.1L40.1,52.1c0.1,0.2,0.1,0.3,0.2,0.3C40.2,52.3,40.2,52.2,40.1,52.1z"/>
<path class="st0" d="M40,51.9"/>
<path class="st0" d="M39.5,50c0.3,0.1,0.8,0.5,0.9-0.2C40,49.8,40,50.2,39.5,50z"/>
<path class="st0" d="M40.4,51.5L40.2,51c-0.1,0.1-0.2,0.2-0.4,0.2L40.4,51.5z"/>
<polygon class="st0" points="40.6,51.6 40.4,51.5 40.4,51.7 "/>
<path class="st0" d="M41,54c0.3,0.1,0.4,0.3,0.6,0.5c-0.1-0.3-0.2-0.5-0.3-0.8C41.1,53.8,40.9,53.8,41,54z"/>
<path class="st0" d="M40.6,53.1L40.6,53.1C40.7,53.1,40.7,53,40.6,53.1z"/>
<path class="st0" d="M42.8,56.7L42.8,56.7L42.8,56.7z"/>
<path class="st0" d="M41.3,53.6c0-0.2-0.2-0.3-0.4-0.3C41.1,53.4,41.2,53.6,41.3,53.6S41.4,53.7,41.3,53.6z"/>
<path class="st0" d="M41.6,55.4V55C41.6,55.2,41.5,55.5,41.6,55.4z"/>
<path class="st0" d="M40.6,53.2L40.6,53.2C40.5,53.3,40.6,53.3,40.6,53.2z"/>
<path class="st0" d="M40.6,53.2c0.1,0.1,0.2,0.1,0.4,0.1c-0.1-0.1-0.2-0.2-0.3-0.2C40.7,53.2,40.7,53.2,40.6,53.2L40.6,53.2z"/>
<path class="st0" d="M45.6,56c-0.4,0.2-0.9-0.1-0.8-0.7c-0.5-0.2-1.5,0.7-1.9,1.4c0.2-0.1,0.3-0.1,0.7,0.1c0.1-0.2-0.1-1.2,0.4-1
	c0.5,0.4,0.1,0.5,0.1,0.9c0.3-0.5,1,0.3,1.6-0.1l-0.5-0.4C45.3,56.1,45.6,56.2,45.6,56z"/>
<path class="st0" d="M42.5,55.8L42.5,55.8c0,0.1-0.1,0.3-0.2,0.8c0.3,0.2,0.5,0.2,0.6,0.1L42.5,55.8z"/>
<path class="st0" d="M41.9,54.9c0.4-0.1,0.8,0.2,1.1-0.2c-0.3-0.5-0.5-0.2-0.9-0.4C42.7,55,41.8,54.2,41.9,54.9
	c-0.1-0.1-0.2-0.3-0.3-0.4c0,0.2,0.1,0.3,0.1,0.5l0,0c0-0.1,0.1-0.1,0,0l0,0C41.8,54.9,41.8,54.9,41.9,54.9c0.1,0.3-0.1,0.1-0.2,0.1
	h-0.1l0.7,0.7C42.3,55.5,42.2,55.3,41.9,54.9z"/>
<path class="st0" d="M41.4,49.8L41.4,49.8C41.4,49.9,41.5,49.9,41.4,49.8z"/>
<path class="st0" d="M41.4,50.3c-0.1,0-0.3,0-0.3-0.2s0.2-0.1,0.3-0.2c-0.2-0.1-0.5-0.2-0.5,0.2H41c0,0.4,0,0.8-0.2,1.1
	C41,50.9,41.2,50.6,41.4,50.3z"/>
<path class="st0" d="M41.8,52.6l0.6,0.6l0.1-0.5l-0.2,0.1C42.1,52.3,41.9,52.5,41.8,52.6z"/>
<polygon class="st0" points="42.7,56.9 42.3,57 43,57.1 "/>
<path class="st0" d="M43.3,57.7l-0.4,0.2c0.1,0,0.2,0.1,0.3,0.1C43.2,57.9,43.2,57.8,43.3,57.7z"/>
<path class="st0" d="M6.8,68.9l-0.2-0.1C6.7,68.8,6.7,68.8,6.8,68.9z"/>
<path class="st0" d="M7.6,70.3l0.2-0.1C7.6,70.2,7.5,70.2,7.6,70.3z"/>
<path class="st0" d="M34.2,74.7c-0.3-0.4-0.5-0.9-0.4-0.5l0.1,0.4C34.1,74.6,34.1,74.6,34.2,74.7z"/>
<path class="st0" d="M18.4,77.3l0.1,0.1c0.1-0.1,0.1-0.3,0.2-0.4L18.4,77.3z"/>
<path class="st0" d="M18.2,79.1l-0.4-0.3C17.8,78.9,18,79,18.2,79.1z"/>
<path class="st0" d="M1.7,60.9c-0.2-0.1-0.5-0.2-0.7-0.3C1.4,61.3,1.4,61,1.7,60.9z"/>
<path class="st0" d="M40.7,64.1c-0.3,0.2-0.5,0.3-0.6,0.5C40.5,64.5,41,64.4,40.7,64.1z"/>
<path class="st0" d="M11.1,67.1c-0.1-0.1-0.2-0.1-0.3,0c0,0,0,0,0,0C10.9,67.2,11,67.2,11.1,67.1C11.1,67.1,11.1,67.1,11.1,67.1z"/>
<path class="st0" d="M39.7,65.3c0.1,0,0.1-0.1,0.2-0.1c0-0.2,0.1-0.4,0.2-0.6C39.8,64.8,39.6,65,39.7,65.3z"/>
<path class="st0" d="M23.7,37.4"/>
<path class="st0" d="M33.1,41.8h-0.4C32.8,41.9,32.9,41.9,33.1,41.8z"/>
<path class="st0" d="M43.3,59C43.3,58.9,43.2,58.9,43.3,59z"/>
<path class="st0" d="M45.3,58.9c0.1,0.1,0.1,0.1,0.2,0.1C45.4,59,45.4,59,45.3,58.9z"/>
<path class="st0" d="M41,68.5"/>
<path class="st0" d="M43.5,58.9h-0.2C43.4,59,43.4,59,43.5,58.9z"/>
<path class="st0" d="M43.3,58.9"/>
<path class="st0" d="M43.3,59"/>
<path class="st0" d="M9.2,46.2"/>
<path class="st0" d="M29.7,79.2"/>
<path class="st0" d="M29,79.6c0.3-0.5,0.5-0.5,0.8-0.4L29.6,78L29,79.6z"/>
<path class="st0" d="M4.7,65.5l-0.1,0.7c-0.9-0.2-0.9-0.8-1.1-0.1c1.2-0.6,1.2,1.7,2.4,1.1l-0.1,0.4c0-0.1-0.1-0.1-0.1-0.2
	c-0.2,0.9,1.1-0.1,1.4,0.8c0.1,0.3,0,0.6-0.2,0.5l0.6,0.4c0.1,0.2-0.1,0.3-0.2,0.1l0.6,0.9l0,0c0.3,0,0.6,0.1,0.9,0.2
	c0,0.3-0.2,0-0.3,0.1L9,70.9c-0.2,0.4-0.7,0.1-0.9-0.2c-0.9,1.1,0.5,0.2,0.4,1.7L8.1,72c-0.5,0.7,0,0.9-0.1,1.7
	c0.1-0.2,0.4-1.7,1-1.3c0,0.2,0.1,0.4,0.5,0.6c-0.4,0.2-0.1,0.5,0.1,0.8L9,74c0.4,0.3,0.6,0.1,1,0.2c0.2,0.5-0.2,0.8-0.5,1.1
	c0.3,0.7,0.4-0.9,1-0.1c0,0.3,0.2,0.6,0.4,0.8c0.1,0.1,0.2,0.2,0.4,0.3l0.6,0.6c0.2,0.8-0.4,0.1-0.4,0.5c0.2,0.1,0.5,0.2,0.7,0.2
	c0.1,0.1-0.1,0.2-0.1,0.2c0.4,0.3,0.5-0.4,1,0.1c0.2-0.2,0.3,0.2,0.4,0.7c0.4,0.4,1.1,0.5,1.6,0.2c0.2,0.2-0.2,0.4-0.2,0.6
	c0.8-0.3,1.1-0.4,1.4-0.5s0.4-0.3,0.8-0.6l0.6,0.4c-0.5-0.5,0.1-1.1,0.7-1.5c-0.2-0.2-0.3-0.4-0.4-0.5l0.9-0.3
	c0.1,0.1,0,0.3-0.1,0.6c0.1-0.1,0.1-0.1,0.2-0.1c0.3,0.2,0.1,0.6-0.1,1c-0.1-0.1-0.2-0.3-0.3-0.4c-0.2,0.4-0.4,0.8-0.4,1.2
	c0.1-0.1,0.2-0.1,0.3-0.2c-0.1,0.1-0.1,0.2-0.1,0.3c0,0.1,0.1-0.1,0.3-0.2l0.2,0.7L19,79l1.1,0.4c0.8-0.7,1.5-1.8,2.8-2.1
	c-0.3,0.5-0.1,0.9-0.1,1.5c-0.4-0.7-1,0.3-1.6,0.1c0.2,0,0.3,0.2,0.3,0.4c0,0,0,0.1-0.1,0.1l1.2-0.6c0,0.5,0.2,0.4,0.6,0.6
	c-0.2-1,0.9-0.7,1.4-1c0,0.3-0.1,0.7-0.7,0.6c0.6,0.8,0.8-1.2,1.5-0.5c-0.1,0-0.2,0-0.3,0.1c0.3-0.3,1.1-0.1,0.9,0.2h-0.1
	c0.9,0.1,2.9,0,3-0.8c0,0.4-0.1,0.8-0.2,1.2l1.7-2.9c-0.1,0.7,0.4,2.5-0.4,2.9c0.3,0.2,0.7,0.2,1,0c-0.1-0.1-0.4-1.1-0.2-1.1
	c0.6,0.8,0.4,0.4,1.1,1.1c-0.2-0.2,0-1.3,0.4-1.3c-0.1,0.2,0,1.1-0.1,1.2l0.9-1.1c-0.2,0.2,0,0.9,0.2,1.3c-0.1-0.2,0.7,0,1.2-0.1
	L33.7,79c0.5,0.1,1.1-0.2,1.3-0.7c0.2-0.4,0.3-0.8,0.9-0.8c0,0.2,0.3,1.4,1.1,1.6c-0.1-0.4-0.3-1.4-0.6-2.3s-0.6-1.6-0.7-2
	c0.1,0,0.2,0.1,0.3,0.1v-0.8c0.2,0.3,0.3,0.5,0.5,0.8c0.2,0.3,0.4,0.6,0.5,1c0.3,0.8,0.4,1.7,0.4,2.6c0.5-0.3,0.3,0.2,0.8-0.6
	c0.4-0.1,0.1,0.8-0.1,1.1l1.3-1.9c-0.5-0.5,0-1.3-0.5-1.6l-0.1,0.8c-0.1,0.3-0.2,0.8-0.3,1.2c-0.4-0.4-0.6-0.9-0.6-1.4
	c-0.1-0.6-0.2-1,0.1-1.4c0.4-0.1,0.9,0.8,1.1,0.9c-0.1-0.3,0-0.7,0.2-1l0.1,0.5c0.5-0.3-0.3-1.2,0.5-1.4c0.1-0.2,1.1-0.1,0.8-0.4
	c-1.2-0.3-2.3-0.9-3.3-1.7c0.5-0.3,1.1-0.5,1.7-0.6c0.7,0,1,1.2,1.6,1.2c-0.1-0.1-0.2-0.4-0.3-0.5c0.2-0.1,0.4,0.4,0.6-0.1
	c-0.6-0.4,0.6-0.9-0.4-0.5c0.1-0.5,0.4-0.4,0.6-0.9c-0.5-0.1-1-1.2-1-1.7c0.1,0.1,0.4,0.1,0.5,0.1c0.6-0.8,1.1-1.1,1.6-1.9
	c0.2,0,0.6-0.3,0.7,0c0-0.2-0.2-0.4-0.1-0.6c0.8-0.2-0.2,0.6,0.6,0.6c-0.3-0.2-0.1-0.9-0.1-1.4c-0.6-0.2-0.6,0.8-0.6,1.2
	c-0.8-0.6-1.1-1.5-1-2.5c0.2-0.8,0.6,0,0.6-0.2c0.9-1.2-0.7-1.8,0.5-2.5c0.7-0.1,0.9,0.5,1.3,0.6c-0.1,0.6-0.8,0.7-1,1.1l0.5-0.3
	c0.1,0.3,0,0.7-0.3,0.8c0.6-0.1,1.3-2.1,2.3-2.8c-0.1-0.3-0.1-0.6-0.3-0.6l-0.1,0.3c-0.5,0-0.3-0.7-0.6-0.5c-0.1-0.5-0.4-0.8,0-1.1
	h0.6c-0.2,0.1-0.4,0.2-0.3,0.4c-0.1-0.1,0.1-0.2,0.4-0.4c0.1-0.2,0.1-0.5-0.4-0.5l-0.3,0.3c-0.5-0.3-1.3-0.3-1.2-0.6
	c-0.5,0.3,0.1,0.1-0.5,0.4c0.8-0.4,0.2,0.4,1.1,0.1c-0.3,0.1-0.4,0.1-0.5,0.2c-0.2,0.2-0.4,0.2-0.7,0.2c0.2,0,0.4,0,0.3,0.1
	c0.1,0,0.1,0.1,0.2,0.1h0.4c0.4,0.2,0.2,0.6,0.3,0.9c-0.2,0.2-0.1-0.2-0.4-0.2l0.1,0.5c-0.4-0.2-1,0.3-0.9-0.4l-0.3,0.5
	c-0.4,0.2-0.6,0.5-0.7,0.9c-0.2,0.2,0.1,0.9-0.1,0.5l-0.2,1l-0.1-0.1c-0.5,0.8-0.4,2.1-1.6,2.6c-0.1,0.4-0.2,0.8-0.5,1.1L39,66.3
	c-0.1,0.4-1,0.9-0.7,1.2c-1.1-0.1-1.2,1.6-1.7,2.2L37,70c-0.3,0.5-0.5,1-0.5,1.6l0.4,0.2c0.1,0.6-1,1.1-1.4,1.8
	c-0.1-0.1,0-0.3,0.2-0.4c-0.3,0.1-0.6,0.2-0.7,0.5c-0.1,0.1-0.1,0.3-0.1,0.4l0.1,0.2c0.1,0.3,0.1,0.8-0.2,0.6v0.2
	c-0.1,0-0.1-0.1-0.2-0.1l0,0c-0.1-0.1-0.1-0.2-0.2-0.2l0.2,0.2c-0.1,0-0.2,0.1-0.2,0.2l-0.2-0.5l0,0c-0.1-0.2,0,0.2,0.1,0.6
	c-0.1,0.1-0.1,0.2-0.1,0.3c-0.1-0.4-0.2-0.3-0.3-0.3s-0.4,0.1-0.5-0.3c-0.2,0.4-1.3,0.3-1.5,1.1c0-0.1-0.1-0.2,0.1-0.2
	c-0.3-0.1-0.6-0.2-0.9,0.1L31,75.4l-0.6,0.8c-0.4-0.4-0.6-0.6-0.2-1.1c-0.9,0.7-0.8,0.3-1.6,1v-0.4c-0.3,0-0.7,0.6-0.9,0.2
	c-0.6-0.8-3.2-0.1-4.8-0.8c0.3,1.2-0.8-0.5-0.8,0.4c-0.1-0.3-0.3-0.4-0.1-0.7c-0.8,0.3-1.3-0.4-1.8,0.3c-0.1-0.3,0.2-0.4,0.1-0.6
	c-0.1,0.1-0.3,0.2-0.4,0.1s0.1-0.2,0.3-0.4c-0.9,0.1-0.9,0.9-1,1.7c-0.4-0.4-0.6-0.3-1,0.2c-0.1-0.3-0.4-0.5,0.1-0.6
	c-0.1,0-0.6-0.1-1-0.1c-0.2,0-0.4,0-0.6,0.1c-0.1,0.1-0.2,0.2-0.2,0.3c-0.1-0.2-0.3-0.1-0.3,0c-0.3-0.1-0.6-0.1-0.9,0l0.1,0.1
	c-0.2,0.3-0.3,0.4-0.4,0.4s-0.1-0.5-0.2-0.6l0.1-0.1c0-1.2-0.4-0.1-0.4-1.3L14,74.7c-0.9,0.4,0-1.2-0.7-1.6l-0.1,0.4
	c-0.5-0.1,0.7-1.6,0.6-2c0-0.1,0.2,0,0.3,0.1c0-1.2-0.6,0.2-1.1-0.4c0.2-0.3,0.8-0.3,0.6-0.7c0.1-0.4-1.7-0.7-1.5-1.6
	c-0.1,0.3-0.3,0.5-0.6,0.3c-0.4-0.4,0.1-1.7-0.8-1.7c0-0.1,0.1-0.1,0.1-0.2c-0.4-0.2-1-1-1.5-1c1.2-1.1-2-1.8-0.6-2.5l-0.7-1
	l0.1-0.1c-0.2-0.5-0.7-0.8-1.2-0.9c0-0.2,0.2-0.2,0.3-0.2c-0.3-1.1-0.5-1.3-1.6-1.6L6,59.7c-0.3,0,0-0.6-0.1-1C6,58.5,6,58.4,6,58.2
	c0.1,0,0.1,0.1,0.2,0.1c-0.1-0.2,0-0.3,0.2-0.4l0.1-0.1c0.1,0,0.1,0,0.2-0.1c0.1-0.1,0.3-0.2,0.4-0.4c0.5-0.5,0.8-1,0.1-1.6v-1
	c-0.7,0.9-0.6-0.5-1.1-0.3c0.1-0.4,1-0.7,0.9-0.2H6.9c0.7,0.6,1-1,1.5-0.7c1-1.9,2.6-3.5,3.6-5.2l-0.8-0.2l0.4-0.6
	c0.2-0.1,0.6,0.1,0.3,0.5c0.5,0,0.1-0.9,0-1c0.8-0.7,0.6,0.8,0.7,0.5l0.2-0.4h-0.1c-0.1-0.4-0.4-0.6,0-1.1c0.3-0.3,0.5,0.1,0.6-0.1
	c0,0,0.1,0,0.1-0.2l0.5-0.7h-0.7c-0.1-0.5,0.4-0.7-0.3-0.7c0.6,0,1.1-0.7,1.5-1.4c0.1-0.3,0.2-0.5,0.4-0.8c0.1-0.2,0.2-0.3,0.3-0.3
	c-0.1-0.3,0-0.6,0.1-0.9h0.5c-0.1-0.1-0.5-0.8,0-0.7c0.1,0.7,0.4,0.8,0.6,0.9s0.2,0.1,0.3,0.2c0.2,0.1,0.3,0.3,0.4,0.5
	c-0.4-0.6,1.7-0.2,1-1.1c0.5,0.1,0,0.5,0.4,0.8c1.2-0.5,2.6,0.3,4,0.2c0-0.2-0.2-0.4,0.1-0.7l0.8,0.9c0.3-0.1,0.3-1,0.8-0.4
	c-0.1-0.1-0.2-0.4,0-0.4c2.8,0.9,5.7-0.7,8.6,0.9c-0.4-0.3-0.1-0.4,0.2-0.4c-0.2-0.1,0-0.4,0-0.7l1.2,0.7c0.2-0.7,1.3,0,1.4-0.7
	L35,41.3c0.5-0.8-0.7-1.7-0.6-2.6c-0.6,0.9-1.5-1.3-2.4,0c-0.2-0.2,0.2-0.3,0.1-0.5c-0.2,0.4-0.5,0.5-1,0.3l0.1-0.1
	c-1.5,0.1-2.1-0.3-3.8-0.6l0.1,0.5c-0.2-0.1-0.4-0.2-0.6-0.3c-0.4,0.7,1,0,0.6,0.8c-0.5-1-2.5,0-2.8-1.1c-0.6,0,0.2,0.6-0.4,0.5
	l-0.1-0.3L24,38.3c-0.4-0.1-0.5-0.4-0.6-0.7c0.1,0,0.2-0.1,0.3-0.1c-0.5-0.4-1.3,0.1-1.5,0l0.5,0.2c-1.5,0.3-3.3-0.1-4.8,0.5
	l0.1,0.2c-0.3,0.1-0.7,0.2-1,0.1c-0.1,0-0.2-0.1-0.4-0.1h-0.9l0.1-0.1c-0.4,0.2-0.8,0.3-1.2,0.3c0.4-0.3-1-0.5-0.6-0.8
	c-0.3,0-0.6,0.1-0.8,0.3c-0.1,0.6,0,1.1,0.1,1.7c-0.1,0-0.2-0.1-0.4-0.1c0.2,0.5,0.1,1-0.1,1.4c0-0.4-0.1-0.4-0.3-0.3
	s-0.4,0-0.4-0.5c-0.5,0.3-0.9,0.9-0.9,1.5c-0.1,0.4-0.1,0.7-0.8,0.7c0.6,1,1-0.7,1.1-0.3c0.4-0.1,0.4,0.8,0.1,1.1s-1.5-0.1-2,0.8
	c0.1-0.1,0-0.1,0.1-0.2c-0.4,0.2-0.1,0.8-0.7,1c0.4,0.5-0.3,0.5,0.3,1L9.8,45c-0.1,0.6,0.5,1.4-0.4,2c-0.1-0.2-0.2-0.5-0.2-0.7
	c-0.3,0.1-0.1,0.5-0.4,0.6C8.2,46.4,9.2,45.8,9,45c-0.4,0.1,0,1.2-0.6,0.5c0.7,0.9-0.6,0.8-0.2,1.8L7.8,47c0,0.1,0.1,0.4,0,0.6
	L7.4,47c0.2,0.8-0.9,0.7-1,1.3c0.6-1,0.6,0.1,1.2-0.2c-0.1,1.5-1.5,0.1-2.1,1.5c0.1-0.2,0.6-0.5,0.7-0.1c-0.3,0.2-0.6,0.4-0.9,0.5
	c-0.4,0.9,0.5,0.1,0.5,0.6c-0.7,0-0.1,0.6-0.1,1l-0.4-0.2c-0.9,1,0.7,0.9-0.1,1.6l-0.4-0.7l-0.1,0.6l-0.4-0.4
	c0.1,0.7-0.1,0.8-0.6,1.3c0.4,0.1,0.6,0.5,0.5,0.9c0,0,0,0.1,0,0.1c-0.4,0.2-0.3-0.4-0.6,0.3c-0.2-0.3-0.4-0.6,0.1-0.7
	c-0.1-0.1-0.2-0.3-0.3-0.4c-0.5,0.2-0.5,0.8-0.7,1c0.1-0.1,0.1-0.2,0.2-0.2v0.9l-0.1,0.4c-0.3,0.1-0.3-0.1-0.3-0.3
	c0,0.4-0.1,0.7-0.2,1.1c-0.3-0.2-0.7-0.3-0.5-1.1c-0.2,0.5-0.3,1.1-0.4,1.6c-0.2,0.1-0.9,0.7-1,0.5C0.2,58,0.1,58.3,0,58.6
	c0.8,0.7,1.4,1.5,1.9,2.4c0.1,0,0.2,0.1,0.4,0.3c0.2,0.4,0.3,0.8,0.4,1.2c0.1,0.4,0.4,0.7,0.8,0.9l-0.4,0.8c0.5,0.5,0.4-1,1.2-0.2
	c0.6,0.5-0.4,0.5-0.4,0.9c0.5,0.1,1.4,0.4,1.3,1.3C4.9,65.9,4.9,65.7,4.7,65.5z M9,72.3c-0.2-0.1-0.6-0.2-0.4-0.4
	C9.1,71.8,9,72,9,72.3z M19.6,78.2c-0.1,0.2-0.3,0.1-0.5-0.1C19.3,78.1,19.4,78.1,19.6,78.2z M42.7,60.8L42.7,60.8
	C42.3,61,42.5,61,42.7,60.8z M43.2,60.3c0-0.1-0.1-0.1-0.2-0.1c0.1,0.1,0,0.2-0.1,0.4C43,60.6,43.2,60.5,43.2,60.3
	C43.2,60.3,43.2,60.3,43.2,60.3z M13.1,45.9L12.9,46C13,45.6,13,45.7,13.1,45.9z"/>
<path class="st0" d="M18.2,78.9c0-0.1-0.1-0.2-0.1-0.3C18.1,78.7,18.1,78.8,18.2,78.9z"/>
<path class="st0" d="M1.8,61"/>
<path class="st0" d="M41.2,72c-0.1,0.1-0.2,0.1-0.4,0.1C40.9,72.2,41,72.1,41.2,72z"/>
<path class="st0" d="M43.2,58.4l0.2,0.1c-0.1-0.1,0.1-0.1,0.1-0.1S43.2,58.5,43.2,58.4z"/>
<path class="st0" d="M44.4,54.6c-0.1,0-0.1-0.1-0.2-0.1L44,54.6C44.2,54.8,44.5,54.9,44.4,54.6z"/>
<path class="st0" d="M44.8,58c0.4-0.1,0.1-0.3,0-0.4l0,0C44.2,57.7,44.5,57.8,44.8,58z"/>
<path class="st0" d="M44.7,57.5c-0.1-0.1-0.1-0.1-0.1-0.2C44.4,57.4,44.6,57.4,44.7,57.5z"/>
<path class="st0" d="M43.4,59.4c0.2-0.1-0.4-0.3-0.2-0.3C42.9,58.6,43.3,60.2,43.4,59.4z"/>
<path class="st0" d="M46,57.4c-0.1,0.1-0.2,0.2-0.4,0.2c0.2,0,0.3,0,0.5,0.1L46,57.4z"/>
<path class="st0" d="M45.7,59.5l0.4-0.4c-0.1,0-0.1,0-0.1-0.1l0,0C45.8,59.3,45.5,59.5,45.7,59.5z"/>
<path class="st0" d="M45.9,59c0.1-0.1,0.1-0.2,0.1-0.3C46,58.8,45.9,58.9,45.9,59z"/>
<polygon class="st0" points="46.5,58 46.5,58.2 46.6,58.5 "/>
<path class="st0" d="M42.9,64.2l-0.2,0.6c0.1,0.1,0.3,0.1,0.3-0.2S43,64.2,42.9,64.2z"/>
<path class="st0" d="M44.9,63.4c-0.2,0.1-0.3,0-0.4,0l0.5,0.3L44.9,63.4z"/>
<path class="st0" d="M44.2,64.9c0.1,0.1,0,0.9,0.3,0.3C44.4,65.1,44.6,64.5,44.2,64.9z"/>
<polygon class="st0" points="39.3,71.9 39.3,71.7 38.5,71.2 "/>
<path class="st0" d="M35.5,79.9c1.2,0.2,0-0.6,1.1-0.3c0.1-0.2-0.9-0.2-0.7-0.5C35.4,79.4,35,79.2,35.5,79.9z"/>
<path class="st0" d="M35.9,79.1c0.1,0,0.1,0,0.2-0.1C36,79,36,79.1,35.9,79.1z"/>
<polygon class="st0" points="34.7,42.3 35.1,42.6 34.9,42.2 "/>
<path class="st0" d="M35.5,41.6l0.1,0.6l0.3-0.6C35.8,41.7,35.6,41.7,35.5,41.6z"/>
<path class="st0" d="M8.4,74l0.1-0.1c0.1-0.1,0.1-0.2,0-0.4L8.4,74z"/>
<polygon class="st0" points="6,68.7 6,68.8 6.4,68.4 "/>
<path class="st0" d="M2.9,64.9c0.1,0.2,0.3,0.3,0.4,0.5C2.9,65.1,3.5,64.5,2.9,64.9z"/>
<polygon class="st0" points="189.1,39.9 167.5,39.9 156.7,58.6 167.5,77.2 189.1,77.2 199.8,58.6 "/>
<path class="st0" d="M187,41.2c-0.1-0.2-0.4,0.1-0.5,0.1C186.8,41.6,187.1,41.2,187,41.2z"/>
<polygon class="st0" points="189.4,43.5 189.3,43.5 189.8,43.7 "/>
<path class="st0" d="M190.9,46c0.5-0.6-0.6-0.9-0.7-1.4l0.1-0.2l-0.6,0.1C190.1,45,190.8,45.6,190.9,46z"/>
<path class="st0" d="M190.3,48.2c0.2-0.2,0.4,0.2-0.1-0.4v0.1C190.2,48,190.3,48,190.3,48.2z"/>
<path class="st0" d="M190.2,47.9C190,47.7,190.1,48.2,190.2,47.9z"/>
<path class="st0" d="M191.1,49.1l-0.4-0.2c-0.1,0.2,0,0.5-0.1,0.4C190.9,49.6,190.9,49.4,191.1,49.1z"/>
<path class="st0" d="M191.7,49.1l-0.2-0.1C191.5,49.1,191.5,49.1,191.7,49.1z"/>
<path class="st0" d="M191.1,48.7l0.4,0.3c0.1-0.1,0.3-0.2-0.2-0.1C191.5,48.8,191.3,48.8,191.1,48.7z"/>
<path class="st0" d="M191.1,48.5c0-0.3,0-0.6,0.4-0.4C191,47.5,190.6,47.8,191.1,48.5z"/>
<path class="st0" d="M191.6,45.8v-0.4l-0.3-0.1C191.5,45.4,191.4,45.9,191.6,45.8z"/>
<path class="st0" d="M192,51.5l0.4-0.4l-0.3-0.2C192.1,51,192.2,51.3,192,51.5z"/>
<path class="st0" d="M192.5,51l0.5,0.3C192.7,50.9,192.6,50.9,192.5,51z"/>
<polygon class="st0" points="192.4,48.8 191.6,48.4 192.5,48.9 "/>
<polygon class="st0" points="192.9,53 192.4,52.9 193.1,53 "/>
<path class="st0" d="M193.5,53.9c-0.4,0-0.3,0.5-0.5,0.4c0.2,0.2,0.6,0.4,0.9,0.4C193.6,54.6,193.5,54.3,193.5,53.9z"/>
<path class="st0" d="M194.3,54.9c-0.1-0.1-0.3-0.1-0.5-0.2C193.9,54.8,194.1,54.9,194.3,54.9z"/>
<path class="st0" d="M193.2,52c-0.1,0.1-0.2,0.3-0.2,0.5l0.3-0.4C193.3,52,193.3,52,193.2,52L193.2,52z"/>
<path class="st0" d="M193.3,52.1L193.3,52.1c0.1,0.2,0.1,0.3,0.2,0.3C193.4,52.3,193.4,52.2,193.3,52.1z"/>
<path class="st0" d="M193.2,51.9"/>
<path class="st0" d="M192.7,50c0.3,0.1,0.8,0.5,0.9-0.2C193.2,49.8,193.2,50.2,192.7,50z"/>
<path class="st0" d="M193.6,51.5l-0.2-0.5c-0.1,0.1-0.2,0.2-0.4,0.2L193.6,51.5z"/>
<polygon class="st0" points="193.8,51.6 193.6,51.5 193.6,51.7 "/>
<path class="st0" d="M194.2,54c0.2,0.1,0.4,0.3,0.5,0.5c-0.1-0.3-0.2-0.5-0.3-0.8C194.3,53.8,194.1,53.8,194.2,54z"/>
<path class="st0" d="M193.8,53.1L193.8,53.1C193.9,53.1,193.9,53,193.8,53.1z"/>
<path class="st0" d="M196,56.7l0.1-0.1L196,56.7z"/>
<path class="st0" d="M194.5,53.6c0-0.2-0.2-0.3-0.4-0.3C194.3,53.4,194.4,53.6,194.5,53.6S194.6,53.7,194.5,53.6z"/>
<path class="st0" d="M194.8,55.4V55C194.8,55.2,194.7,55.5,194.8,55.4z"/>
<path class="st0" d="M193.8,53.2"/>
<path class="st0" d="M193.8,53.2c0.1,0.1,0.2,0.1,0.4,0.1c-0.1-0.1-0.2-0.2-0.3-0.2L193.8,53.2z"/>
<path class="st0" d="M198.8,56c-0.3,0.2-0.6,0.1-0.8-0.2c-0.1-0.2-0.1-0.3,0-0.5c-0.5-0.2-1.5,0.7-1.9,1.4c0.2-0.1,0.3-0.1,0.7,0.1
	c0.1-0.2-0.1-1.2,0.4-1c0.5,0.4,0.1,0.5,0.1,0.9c0.3-0.5,1,0.3,1.6-0.1l-0.5-0.4C198.5,56.1,198.8,56.2,198.8,56z"/>
<path class="st0" d="M195.7,55.8l-0.1-0.1c0,0.3,0,0.6-0.1,0.9c0.3,0.2,0.5,0.2,0.6,0.1L195.7,55.8z"/>
<path class="st0" d="M195.1,54.9c0.5-0.1,0.8,0.2,1.1-0.2c-0.3-0.5-0.5-0.2-0.9-0.4C195.9,55,195,54.2,195.1,54.9
	c-0.1-0.1-0.2-0.3-0.3-0.4c0,0.2,0.1,0.3,0.1,0.5l0,0C195,54.9,195,54.9,195.1,54.9c0,0.3-0.1,0.1-0.2,0.1h-0.1l0.7,0.7
	C195.5,55.5,195.3,55.3,195.1,54.9z"/>
<path class="st0" d="M194.6,49.8L194.6,49.8C194.6,49.9,194.7,49.9,194.6,49.8z"/>
<path class="st0" d="M194.6,50.3c-0.1,0-0.3,0-0.3-0.2s0.2-0.1,0.3-0.2c-0.2-0.1-0.5-0.2-0.5,0.2h0.1c0,0.4,0,0.8-0.2,1.1
	C194.2,50.9,194.4,50.6,194.6,50.3z"/>
<path class="st0" d="M194.9,52.6l0.6,0.6l0.1-0.5l-0.2,0.1C195.3,52.3,195.1,52.5,194.9,52.6z"/>
<polygon class="st0" points="195.9,56.9 195.4,57 196.2,57.1 "/>
<path class="st0" d="M196.4,57.7l-0.4,0.2c0.1,0,0.2,0.1,0.3,0.1C196.4,57.9,196.4,57.8,196.4,57.7z"/>
<path class="st0" d="M160,68.9l-0.2-0.1C159.9,68.8,159.9,68.8,160,68.9z"/>
<path class="st0" d="M160.8,70.3l0.2-0.1C160.8,70.2,160.7,70.2,160.8,70.3z"/>
<path class="st0" d="M187.4,74.7c-0.3-0.4-0.5-0.9-0.4-0.5l0.1,0.4C187.2,74.6,187.3,74.6,187.4,74.7z"/>
<path class="st0" d="M171.6,77.3l0.1,0.1c0.1-0.1,0.1-0.3,0.2-0.4L171.6,77.3z"/>
<path class="st0" d="M171.4,79.1l-0.4-0.3C171,78.9,171.2,79,171.4,79.1z"/>
<path class="st0" d="M154.8,60.9c-0.2-0.1-0.5-0.2-0.7-0.3C154.6,61.3,154.6,61,154.8,60.9z"/>
<path class="st0" d="M193.9,64.1c-0.3,0.2-0.5,0.3-0.6,0.5C193.7,64.5,194.1,64.4,193.9,64.1z"/>
<path class="st0" d="M164.3,67.1c-0.1-0.1-0.2-0.1-0.3,0c0,0,0,0,0,0C164.1,67.2,164.2,67.2,164.3,67.1
	C164.3,67.1,164.3,67.1,164.3,67.1z"/>
<path class="st0" d="M192.9,65.3c0.1,0,0.1-0.1,0.2-0.1c0-0.2,0.1-0.4,0.2-0.6C193,64.8,192.7,65,192.9,65.3z"/>
<path class="st0" d="M176.8,37.4"/>
<path class="st0" d="M186.3,41.8h-0.4C186,41.9,186.1,41.9,186.3,41.8z"/>
<path class="st0" d="M196.5,59C196.5,58.9,196.4,58.9,196.5,59z"/>
<path class="st0" d="M198.5,58.9c0.1,0.1,0.1,0.1,0.2,0.1C198.6,59,198.6,59,198.5,58.9z"/>
<path class="st0" d="M194.2,68.5"/>
<path class="st0" d="M196.7,58.9h-0.2C196.6,59,196.6,59,196.7,58.9z"/>
<path class="st0" d="M196.5,58.9L196.5,58.9C196.5,58.8,196.4,58.8,196.5,58.9z"/>
<path class="st0" d="M196.4,59"/>
<path class="st0" d="M162.3,46.2L162.3,46.2C162.4,45.9,162.3,46,162.3,46.2z"/>
<path class="st0" d="M182.9,79.2"/>
<path class="st0" d="M182.1,79.6c0.3-0.5,0.5-0.5,0.8-0.4l-0.2-1.2L182.1,79.6z"/>
<path class="st0" d="M157.9,65.5l-0.1,0.7c-0.9-0.2-0.9-0.8-1.1-0.1c1.2-0.6,1.2,1.7,2.4,1.1l-0.1,0.4c0-0.1-0.1-0.1-0.1-0.2
	c-0.2,0.9,1.1-0.1,1.4,0.8c0.1,0.3,0,0.6-0.2,0.5l0.6,0.4c0.1,0.2-0.1,0.3-0.2,0.1l0.6,0.9l0,0c0.3,0,0.6,0.1,0.9,0.2
	c0,0.3-0.2,0-0.3,0.1l0.6,0.3c-0.2,0.4-0.7,0.1-0.9-0.2c-0.9,1.1,0.5,0.2,0.4,1.7l-0.4-0.4c-0.5,0.7,0,0.9-0.1,1.7
	c0.1-0.2,0.4-1.7,1-1.3c0,0.2,0.1,0.4,0.5,0.6c-0.4,0.2-0.1,0.5,0.1,0.8l-0.6,0.3c0.4,0.3,0.6,0.1,1,0.2c0.2,0.5-0.2,0.8-0.5,1.1
	c0.3,0.7,0.4-0.9,1-0.1c0,0.3,0.2,0.6,0.4,0.8c0.1,0.1,0.2,0.2,0.4,0.3l0.6,0.6c0.2,0.8-0.4,0.1-0.4,0.5c0.2,0.1,0.5,0.2,0.7,0.2
	c0.1,0.1-0.1,0.2-0.1,0.2c0.4,0.3,0.5-0.4,1,0.1c0.2-0.2,0.3,0.2,0.4,0.7c0.4,0.4,1.1,0.5,1.6,0.2c0.2,0.2-0.2,0.4-0.2,0.6
	c0.8-0.3,1.1-0.4,1.4-0.5s0.4-0.3,0.8-0.6l0.6,0.4c-0.5-0.5,0.1-1.1,0.7-1.5c-0.2-0.2-0.3-0.4-0.4-0.5l0.9-0.3
	c0.1,0.1,0,0.3-0.1,0.6c0.1-0.1,0.1-0.1,0.2-0.1c0.3,0.2,0.1,0.6-0.1,1c-0.1-0.1-0.2-0.3-0.3-0.4c-0.2,0.4-0.4,0.8-0.4,1.2
	c0.1-0.1,0.2-0.1,0.3-0.2c-0.1,0.1-0.1,0.2-0.1,0.3c0,0.1,0.1-0.1,0.3-0.2l0.2,0.7v-0.3l1.1,0.4c0.8-0.7,1.5-1.8,2.8-2.1
	c-0.3,0.5-0.1,0.9-0.1,1.5c-0.4-0.7-1,0.3-1.6,0.1c0.2,0,0.3,0.2,0.3,0.4c0,0,0,0.1-0.1,0.1l1.2-0.6c0,0.5,0.2,0.4,0.6,0.6
	c-0.2-1,0.9-0.7,1.4-1c0,0.3-0.1,0.7-0.7,0.6c0.6,0.8,0.8-1.2,1.5-0.5c-0.1,0-0.2,0-0.3,0.1c0.3-0.3,1.1-0.1,1,0.2h-0.1
	c0.9,0.1,2.9,0,3-0.8c0,0.4-0.1,0.8-0.2,1.2l1.7-2.9c-0.1,0.7,0.4,2.5-0.4,2.9c0.3,0.2,0.7,0.2,1,0c-0.1-0.1-0.4-1.1-0.2-1.1
	c0.6,0.8,0.4,0.4,1.1,1.1c-0.2-0.2,0-1.3,0.4-1.3c-0.1,0.2,0,1.1-0.1,1.2l0.9-1.1c-0.2,0.2,0,0.9,0.2,1.3c-0.1-0.2,0.7,0,1.2-0.1
	l-0.6-0.3c0.5,0.1,1.1-0.2,1.3-0.7c0.2-0.4,0.3-0.8,0.9-0.8c0,0.2,0.3,1.4,1.1,1.6c-0.1-0.4-0.3-1.4-0.6-2.3s-0.6-1.6-0.7-2
	c0.1,0,0.2,0.1,0.3,0.1v-0.8c0.2,0.3,0.3,0.5,0.5,0.8c0.2,0.3,0.4,0.6,0.5,1c0.3,0.8,0.4,1.7,0.4,2.6c0.5-0.3,0.3,0.2,0.8-0.6
	c0.4-0.1,0.1,0.8-0.1,1.1l1.3-1.9c-0.5-0.5,0-1.3-0.5-1.6l-0.1,0.8c-0.1,0.4-0.2,0.8-0.3,1.2c-0.4-0.4-0.6-0.9-0.6-1.4
	c-0.1-0.6-0.2-1,0.1-1.4c0.4-0.1,1,0.8,1.1,0.9c-0.1-0.3,0-0.7,0.2-1l0.1,0.5c0.5-0.3-0.3-1.2,0.5-1.4c0.1-0.2,1.1-0.1,0.8-0.4
	c-1.2-0.3-2.3-0.9-3.3-1.7c0.5-0.3,1.1-0.5,1.7-0.6c0.7,0,1,1.2,1.6,1.2c-0.1-0.1-0.2-0.4-0.3-0.5c0.2-0.1,0.5,0.4,0.6-0.1
	c-0.5-0.4,0.6-0.9-0.4-0.5c0.1-0.5,0.4-0.4,0.6-0.9c-0.5-0.1-1-1.2-1-1.7c0.1,0.1,0.4,0.1,0.5,0.1c0.5-0.8,1.1-1.1,1.6-1.9
	c0.2,0,0.6-0.3,0.7,0c0-0.2-0.2-0.4,0-0.6c0.8-0.2-0.2,0.6,0.6,0.6c-0.3-0.2-0.1-0.9-0.1-1.4c-0.6-0.2-0.6,0.8-0.6,1.2
	c-0.8-0.6-1.1-1.5-1-2.5c0.2-0.8,0.6,0,0.6-0.2c0.9-1.2-0.7-1.8,0.5-2.5c0.7-0.1,0.9,0.5,1.3,0.6c-0.1,0.6-0.8,0.7-1,1.1l0.5-0.3
	c0,0.3,0,0.7-0.3,0.8c0.6-0.1,1.3-2.1,2.3-2.8c0-0.3-0.1-0.6-0.3-0.6l-0.1,0.3c-0.5,0-0.3-0.7-0.6-0.5c-0.1-0.5-0.5-0.8,0-1.1h0.6
	c-0.2,0.1-0.4,0.2-0.3,0.4c-0.1-0.1,0.1-0.2,0.4-0.4c0.1-0.2,0.1-0.5-0.4-0.5l-0.3,0.3c-0.5-0.3-1.3-0.3-1.2-0.6
	c-0.5,0.3,0.1,0.1-0.5,0.4c0.8-0.4,0.2,0.4,1.1,0.1c-0.3,0.1-0.4,0.1-0.5,0.2c-0.2,0.2-0.4,0.2-0.7,0.2c0.2,0,0.4,0,0.3,0.1
	c0.1,0,0.1,0.1,0.2,0.1h0.4c0.4,0.2,0.2,0.6,0.3,0.9c-0.2,0.2-0.1-0.2-0.4-0.2l0.1,0.5c-0.4-0.2-1,0.3-0.9-0.4l-0.3,0.5
	c-0.4,0.2-0.6,0.5-0.7,0.9c-0.2,0.2,0.1,0.9-0.1,0.5l-0.2,1l-0.1-0.1c-0.5,0.8-0.4,2.1-1.6,2.6c-0.1,0.4-0.2,0.8-0.5,1.1l-0.4-0.1
	c-0.1,0.4-1,0.9-0.7,1.2c-1.1-0.1-1.2,1.6-1.7,2.2l0.4,0.3c-0.3,0.5-0.5,1-0.5,1.6l0.4,0.2c0,0.6-1,1.1-1.4,1.8
	c-0.1-0.1,0-0.3,0.2-0.4c-0.3,0.1-0.5,0.3-0.7,0.5c-0.1,0.1-0.1,0.3-0.1,0.4v0.2c0.1,0.3,0.1,0.8-0.2,0.6v0.2
	c-0.1-0.1-0.1-0.1-0.2-0.1l0,0c-0.1-0.1-0.1-0.2-0.2-0.2l0.2,0.2c-0.1,0-0.2,0.1-0.2,0.2l-0.2-0.5l0,0c-0.1-0.2,0,0.2,0.1,0.6
	c0,0.1-0.1,0.2-0.1,0.3c-0.1-0.4-0.2-0.3-0.3-0.3s-0.4,0.1-0.5-0.3c-0.2,0.4-1.3,0.3-1.5,1.1c0-0.1-0.1-0.2,0.1-0.2
	c-0.3-0.1-0.6-0.2-0.9,0.1l-0.1-0.6l-0.6,0.8c-0.4-0.4-0.6-0.6-0.2-1.1c-0.9,0.7-0.8,0.3-1.6,1v-0.4c-0.3,0-0.7,0.6-0.9,0.2
	c-0.6-0.8-3.2-0.1-4.8-0.8c0.3,1.2-0.8-0.5-0.8,0.4c-0.1-0.3-0.3-0.4-0.1-0.7c-0.8,0.3-1.3-0.4-1.8,0.3c-0.1-0.3,0.2-0.4,0.1-0.6
	c-0.1,0.1-0.3,0.2-0.4,0.1s0.1-0.2,0.3-0.4c-0.9,0.1-0.9,0.9-1,1.7c-0.4-0.4-0.6-0.3-1,0.2c-0.1-0.3-0.4-0.5,0.1-0.6
	c-0.1,0-0.6-0.1-1-0.1c-0.2,0-0.4,0-0.6,0.1c-0.1,0.1-0.2,0.2-0.2,0.3c0-0.2-0.3-0.1-0.3,0c-0.3-0.1-0.6-0.1-0.9,0l0.1,0.1
	c-0.2,0.3-0.3,0.4-0.4,0.4s0-0.5-0.2-0.6l0.1-0.1c0-1.2-0.4-0.1-0.4-1.3l-0.4,0.3c-1,0.4,0-1.2-0.7-1.6l-0.1,0.4
	c-0.5-0.1,0.7-1.6,0.6-2c0-0.1,0.2,0,0.3,0.1c0-1.2-0.6,0.2-1.1-0.4c0.2-0.3,0.8-0.3,0.6-0.7c0.1-0.4-1.7-0.7-1.5-1.6
	c-0.1,0.3-0.3,0.5-0.6,0.3c-0.4-0.4,0.1-1.7-0.8-1.7c0-0.1,0.1-0.1,0.1-0.2c-0.4-0.2-1-1-1.5-1c1.2-1.1-2-1.8-0.6-2.5l-0.7-1
	l0.1-0.1c-0.2-0.5-0.7-0.8-1.2-0.9c0-0.2,0.2-0.2,0.3-0.2c-0.3-1.1-0.5-1.3-1.5-1.6l0.4-0.3c-0.3,0,0-0.6-0.1-1
	c0.1-0.1,0.1-0.2,0-0.4c0.1,0,0.1,0.1,0.2,0.1c-0.1-0.2,0-0.3,0.2-0.4l0.1-0.1c0.1,0,0.1,0,0.2-0.1c0.1-0.1,0.3-0.2,0.4-0.4
	c0.5-0.5,0.8-1,0.1-1.6v-1c-0.7,0.9-0.6-0.5-1.1-0.3c0.1-0.4,1-0.7,0.9-0.2h-0.1c0.7,0.6,1-1,1.5-0.7c1-1.9,2.5-3.5,3.6-5.2
	l-0.8-0.2l0.4-0.6c0.2-0.1,0.6,0.1,0.3,0.5c0.5,0,0.1-0.9,0-1c0.8-0.7,0.5,0.8,0.7,0.5l0.2-0.4h-0.1c-0.1-0.4-0.4-0.6,0-1.1
	c0.3-0.3,0.5,0.1,0.6-0.1c0,0,0.1,0,0.1-0.2l0.5-0.7h-0.7c0-0.5,0.5-0.7-0.3-0.7c0.6,0,1.1-0.7,1.5-1.4c0.1-0.3,0.2-0.5,0.4-0.8
	c0.1-0.2,0.2-0.3,0.3-0.3c-0.1-0.3,0-0.6,0.1-0.9h0.5c-0.1-0.1-0.5-0.8,0-0.7c0.1,0.7,0.4,0.8,0.6,0.9s0.2,0.1,0.3,0.2
	c0.2,0.1,0.4,0.3,0.5,0.5c-0.4-0.6,1.7-0.2,1-1.1c0.5,0.1,0,0.5,0.4,0.8c1.2-0.5,2.5,0.3,4,0.2c0-0.2-0.2-0.4,0.1-0.7l0.8,0.9
	c0.3-0.1,0.3-1,0.8-0.4c-0.1-0.1-0.2-0.4,0-0.4c2.8,0.9,5.7-0.7,8.6,0.9c-0.4-0.3-0.1-0.4,0.2-0.4c-0.2-0.1,0-0.4,0-0.7l1.2,0.7
	c0.2-0.7,1.3,0,1.4-0.7l-0.4,0.1c0.5-0.8-0.7-1.7-0.6-2.6c-0.6,0.9-1.5-1.3-2.4,0c-0.2-0.2,0.2-0.3,0.1-0.5c-0.2,0.4-0.5,0.5-1,0.3
	l0.1-0.1c-1.5,0.1-2.1-0.3-3.8-0.6l0.1,0.5c-0.2-0.1-0.4-0.2-0.6-0.3c-0.4,0.7,1,0,0.6,0.8c-0.5-1-2.5,0-2.8-1.1
	c-0.5,0,0.2,0.6-0.4,0.5l-0.1-0.3l-0.1,0.4c-0.3-0.1-0.5-0.4-0.5-0.7c0.1,0,0.2-0.1,0.3-0.1c-0.5-0.4-1.3,0.1-1.5,0l0.5,0.2
	c-1.5,0.3-3.3-0.1-4.8,0.5l0.1,0.2c-0.3,0.1-0.7,0.2-1,0.1c-0.1,0-0.2-0.1-0.4-0.1h-0.9l0.1-0.1c-0.4,0.2-0.8,0.3-1.2,0.3
	c0.4-0.3-1-0.5-0.6-0.8c-0.3,0-0.6,0.1-0.8,0.3c-0.1,0.6,0,1.1,0.1,1.7c-0.1,0-0.2-0.1-0.4-0.1c0.2,0.5,0.1,1-0.1,1.4
	c0-0.4-0.1-0.4-0.3-0.3s-0.4,0-0.4-0.5c-0.5,0.3-0.9,0.9-0.9,1.5c-0.1,0.4-0.1,0.7-0.8,0.7c0.6,1,1-0.7,1.1-0.3
	c0.4-0.1,0.4,0.8,0.1,1.1s-1.5-0.1-2,0.8v-0.2c-0.4,0.2-0.1,0.8-0.7,1c0.4,0.5-0.3,0.5,0.3,1L163,45c-0.1,0.6,0.5,1.4-0.4,2
	c-0.1-0.2-0.2-0.5-0.2-0.7c-0.3,0.1-0.1,0.5-0.5,0.6c-0.6-0.5,0.4-1.1,0.2-1.9c-0.4,0.1,0,1.2-0.6,0.5c0.7,0.9-0.6,0.8-0.2,1.8
	l-0.4-0.3c0,0.1,0.1,0.4,0,0.6l-0.4-0.6c0.2,0.8-0.9,0.7-1,1.3c0.5-1,0.6,0.1,1.2-0.2c-0.1,1.5-1.5,0.1-2,1.5c0-0.2,0.6-0.5,0.7-0.1
	c-0.3,0.2-0.6,0.4-0.9,0.5c-0.4,0.9,0.5,0.1,0.5,0.6c-0.7,0,0,0.6-0.1,1l-0.4-0.2c-0.9,0.9,0.7,0.8-0.1,1.5l-0.4-0.7l-0.1,0.6
	l-0.4-0.4c0.1,0.5-0.1,1-0.5,1.3c0.4,0.1,0.6,0.5,0.5,0.9c0,0,0,0.1,0,0.1c-0.4,0.2-0.3-0.4-0.6,0.3c-0.2-0.3-0.4-0.6,0.1-0.7
	c-0.1-0.1-0.2-0.3-0.3-0.4c-0.5,0.2-0.5,0.8-0.7,1c0.1-0.1,0.1-0.2,0.2-0.2V56c-0.3,0.1-0.3-0.1-0.3-0.3c0,0.4-0.1,0.7-0.2,1.1
	c-0.3-0.2-0.7-0.3-0.5-1.1c-0.2,0.6-0.3,1.1-0.5,1.6c-0.2,0.1-1,0.7-1,0.5c-0.2,0.2-0.3,0.5-0.4,0.8c0.8,0.7,1.4,1.5,1.9,2.4
	c0.1,0,0.2,0.1,0.4,0.3c0.2,0.4,0.3,0.8,0.4,1.2c0.1,0.4,0.4,0.7,0.8,0.9l-0.4,0.8c0.5,0.5,0.5-1,1.2-0.2c0.6,0.5-0.4,0.5-0.4,0.9
	c0.5,0.1,1.5,0.4,1.3,1.3C158.2,66.1,158,65.8,157.9,65.5z M162.2,72.3c-0.2-0.1-0.6-0.2-0.4-0.4C162.3,71.8,162.2,72,162.2,72.3z
	 M172.8,78.2c-0.1,0.2-0.3,0.1-0.5-0.1C172.5,78.1,172.6,78.1,172.8,78.2z M195.9,60.8L195.9,60.8C195.5,61,195.7,61,195.9,60.8
	L195.9,60.8z M196.4,60.3c0-0.1-0.1-0.1-0.2-0.1c0.1,0.1,0,0.2-0.1,0.4C196.2,60.6,196.4,60.5,196.4,60.3
	C196.4,60.3,196.4,60.3,196.4,60.3L196.4,60.3z M166.3,45.9l-0.2,0.1C166.1,45.6,166.2,45.7,166.3,45.9z"/>
<path class="st0" d="M171.4,78.9c0-0.1-0.1-0.2-0.1-0.3C171.3,78.7,171.3,78.8,171.4,78.9z"/>
<path class="st0" d="M155,61"/>
<path class="st0" d="M194.4,72c-0.1,0.1-0.2,0.1-0.4,0.1C194.1,72.2,194.2,72.1,194.4,72z"/>
<path class="st0" d="M196.4,58.4l0.2,0.1c-0.1-0.1,0-0.1,0.1-0.1C196.6,58.4,196.4,58.5,196.4,58.4z"/>
<path class="st0" d="M197.6,54.6c-0.1,0-0.1-0.1-0.2-0.1l-0.2,0.1C197.4,54.8,197.6,54.9,197.6,54.6z"/>
<path class="st0" d="M198,58c0.4-0.1,0.1-0.3,0-0.4l0,0C197.4,57.7,197.7,57.8,198,58z"/>
<path class="st0" d="M197.9,57.5c0-0.1-0.1-0.1-0.1-0.2C197.6,57.4,197.8,57.4,197.9,57.5z"/>
<path class="st0" d="M196.6,59.4c0.2-0.1-0.4-0.3-0.2-0.3C196,58.6,196.4,60.2,196.6,59.4z"/>
<path class="st0" d="M199.2,57.4c-0.1,0.1-0.3,0.2-0.5,0.2c0.2,0,0.3,0,0.5,0.1V57.4z"/>
<path class="st0" d="M198.8,59.5l0.4-0.4c-0.1,0-0.1,0-0.1-0.1v0C198.9,59.3,198.7,59.5,198.8,59.5z"/>
<path class="st0" d="M199.1,59c0.1-0.1,0.1-0.2,0.1-0.3C199.2,58.8,199.1,58.9,199.1,59z"/>
<polygon class="st0" points="199.7,58 199.7,58.2 199.8,58.5 "/>
<path class="st0" d="M196,64.2l-0.2,0.6c0.1,0.1,0.3,0.1,0.3-0.2S196.2,64.2,196,64.2z"/>
<path class="st0" d="M198.1,63.4c-0.2,0.1-0.3,0-0.5,0l0.5,0.3V63.4z"/>
<path class="st0" d="M197.4,64.9c0.1,0.1,0,0.9,0.3,0.3C197.6,65.1,197.8,64.5,197.4,64.9z"/>
<polygon class="st0" points="192.5,71.9 192.5,71.7 191.6,71.2 "/>
<path class="st0" d="M188.7,79.9c1.2,0.2,0-0.6,1.1-0.3c0.1-0.2-0.9-0.2-0.7-0.5C188.6,79.4,188.2,79.2,188.7,79.9z"/>
<path class="st0" d="M189.1,79.1c0.1,0,0.1,0,0.2-0.1C189.2,79,189.2,79,189.1,79.1z"/>
<polygon class="st0" points="187.9,42.3 188.3,42.6 188,42.2 "/>
<path class="st0" d="M188.7,41.6l0.1,0.6l0.3-0.6C189,41.7,188.8,41.7,188.7,41.6z"/>
<path class="st0" d="M161.6,74l0.1-0.1c0.1-0.1,0.1-0.2,0-0.4L161.6,74z"/>
<polygon class="st0" points="159.1,68.7 159.2,68.8 159.6,68.4 "/>
<path class="st0" d="M156,64.9c0.1,0.2,0.3,0.3,0.4,0.5C156.1,65.1,156.7,64.5,156,64.9z"/>
<circle class="st1" cx="100.7" cy="58.6" r="55.5"/>
<path class="st1" d="M156.4,58.1c0,0.5,0,0.3,0.1,0.4C156.4,57.7,156.4,58.2,156.4,58.1z"/>
<polygon class="st1" points="155.6,49.7 155.6,49.8 155.4,48.6 "/>
<path class="st1" d="M153.9,41.9c0.1,0.8,0.7,2.8,1,4.2v0.2l0.2,0.6C154.8,45.2,154.2,43.1,153.9,41.9z"/>
<path class="st1" d="M152.8,37.7c0,0.3-0.4-0.9,0.3,1v-0.2C153,38.3,153,38.1,152.8,37.7z"/>
<path class="st1" d="M153.1,38.5C153.4,39.3,153,38,153.1,38.5z"/>
<path class="st1" d="M151.6,34.9l0.5,1c-0.1-0.2-0.4-1.1-0.3-0.8C151.4,34,151.4,34.2,151.6,34.9z"/>
<path class="st1" d="M151.1,34l0.3,0.5C151.3,34.4,151.3,34.2,151.1,34z"/>
<path class="st1" d="M151.9,35.6l-0.5-1.1c0,0.2,0,0.2,0.2,0.5C151.5,34.9,151.6,35.1,151.9,35.6z"/>
<path class="st1" d="M152.2,36.2c0.2,0.6,0.5,1.4,0,0.3c0.4,1,0.5,1.4,0.6,1.3C152.6,37.3,152.4,36.7,152.2,36.2z"/>
<path class="st1" d="M153.6,41.5c0.1,0.3,0.2,0.5,0.2,0.8L154,43c0-0.3-0.1-0.6-0.2-0.9L153.6,41.5z"/>
<path class="st1" d="M148.6,28.6c-0.1,0,0.1,0.4,0,0.5l0.5,0.7C149,29.4,148.6,28.7,148.6,28.6z"/>
<path class="st1" d="M148.7,29.1l-0.7-1C148.5,29,148.7,29.2,148.7,29.1z"/>
<polygon class="st1" points="150.8,33.9 151.8,35.7 150.6,33.5 "/>
<polygon class="st1" points="146.1,24.5 146.6,25 145.8,24.1 "/>
<path class="st1" d="M144.3,22c0.4,0.3-0.3-0.7,0.1-0.3c-0.6-0.7-1.1-1.1-1.6-1.6C143.4,20.7,143.9,21.3,144.3,22z"/>
<path class="st1" d="M142,19.3c0.2,0.3,0.5,0.5,0.8,0.7C142.5,19.8,142.3,19.5,142,19.3z"/>
<path class="st1" d="M146.9,26.3c0-0.1,0-0.3-0.4-0.9l0.1,0.5C146.7,26,146.8,26.1,146.9,26.3z"/>
<path class="st1" d="M146.6,25.9L146.6,25.9c-0.2-0.3-0.4-0.6-0.6-0.9C146.2,25.3,146.4,25.6,146.6,25.9z"/>
<path class="st1" d="M147,26.4c0-0.1,0-0.1-0.1-0.1l0,0L147,26.4z"/>
<path class="st1" d="M149.5,30.9c-0.4-0.6-1.3-1.8-0.6-0.5C149.2,30.8,148.8,30.1,149.5,30.9z"/>
<path class="st1" d="M147.2,27c0.2,0.4,0.4,0.7,0.6,1.1c0,0,0-0.3,0.2,0C147.8,27.7,147.5,27.3,147.2,27z"/>
<polygon class="st1" points="146.7,26.5 147.2,27 146.9,26.6 "/>
<path class="st1" d="M143.3,21.2c-0.4-0.4-0.8-0.9-1.3-1.4c0.5,0.6,1,1.2,1.4,1.8C143.5,21.6,143.8,21.8,143.3,21.2z"/>
<path class="st1" d="M145,23.4l-0.1-0.1C144.9,23.4,144.9,23.5,145,23.4z"/>
<polygon class="st1" points="137.1,14.8 137.1,15 137.2,14.9 "/>
<path class="st1" d="M143.4,21.7c0.2,0.4,0.5,0.7,0.9,0.9c-0.3-0.3-0.6-0.6-0.9-1C143.3,21.6,143.3,21.6,143.4,21.7z"/>
<path class="st1" d="M140.6,17.9c0.2,0.2,0.4,0.5,0.6,0.8C141.1,18.4,140.9,18.1,140.6,17.9z"/>
<path class="st1" d="M144.8,23.1"/>
<path class="st1" d="M144.8,23.1l-0.5-0.5c0.2,0.3,0.4,0.5,0.6,0.7C144.8,23.2,144.8,23.2,144.8,23.1z"/>
<path class="st1" d="M134.4,14.9c0.1-0.1,0.5,0.1,1,0.3c0.3,0.1,0.5,0.3,0.7,0.5c0.2,0.2,0.4,0.4,0.6,0.7c1,0.7,0.9-0.4,0.4-1.5
	c-0.1,0.1-0.1,0.1-1.2-0.6c0.3,0.3,2,2.1,1,1.6c-0.3-0.4-0.7-0.7-1.1-0.9c-0.2-0.1-0.2-0.3-0.5-0.6c0.4,0.7-2-1-2-0.3l1.3,0.8
	C134.6,14.8,134.1,14.6,134.4,14.9z"/>
<path class="st1" d="M138.9,16.7l0.4,0.4c-0.4-0.5-0.8-1-1.1-1.5c-0.7-0.6-0.9-0.6-1-0.6l1.9,1.9L138.9,16.7z"/>
<path class="st1" d="M141,18.8c-0.4-0.2-1.5-1-1-0.2c0.5,0.5,1,0.9,1.6,1.3C139.9,17.9,142.1,20.3,141,18.8c0.3,0.4,0.6,0.7,0.9,1.1
	C141.6,19.5,141.4,19.2,141,18.8L141,18.8L141,18.8C141.1,19,141.2,19,141,18.8L141,18.8C141.1,18.8,141.1,18.8,141,18.8
	C140.6,18.2,141,18.7,141,18.8L141,18.8c-0.5-0.6-1.2-1.1-1.8-1.7C139.9,17.6,140.5,18.2,141,18.8z"/>
<path class="st1" d="M147.9,29.4L147.9,29.4C147.8,29.2,147.7,29.2,147.9,29.4z"/>
<path class="st1" d="M147.4,28.5c0.2,0.2,0.4,0.5,0.5,0.8c0.2,0.5-0.1,0-0.1,0.1c0.2,0.3,0.7,1,0.2,0l-0.1-0.1
	c-0.4-0.6-0.7-1.3-0.9-2C147.2,27.7,147.3,28.1,147.4,28.5z"/>
<path class="st1" d="M144.4,23.5c-0.4-0.6-0.9-1.1-1.4-1.6l0.6,0.9v-0.1C144.3,23.7,144.2,23.5,144.4,23.5z"/>
<path class="st1" d="M137,14.6h0.4c-0.4-0.2-0.8-0.3-1.2-0.5L137,14.6z"/>
<polygon class="st1" points="134.8,12.8 135.1,12.7 134.4,12.4 "/>
<path class="st1" d="M54.5,85.9l0.4,0.5C54.7,86.2,54.6,86,54.5,85.9z"/>
<path class="st1" d="M52.5,82.1h-0.2C52.5,82.2,52.6,82.3,52.5,82.1z"/>
<path class="st1" d="M70.2,9.3c-1,0.2-2.2,0.2-1.9,0.6l0.5,0.2C69.2,9.7,69.7,9.4,70.2,9.3z"/>
<path class="st1" d="M46.4,47.7c0.1-0.1,0.1-0.1,0.1-0.2c-0.1-0.2-0.1-0.4-0.2-0.6C46.4,47,46.4,47.3,46.4,47.7z"/>
<path class="st1" d="M47.8,48.6l-0.4,1.1C47.5,49.4,47.6,49.1,47.8,48.6z"/>
<path class="st1" d="M70.4,102.8c0.2,0.1,0.5,0.1,0.7,0.2C70.2,102.4,70.5,102.7,70.4,102.8z"/>
<path class="st1" d="M108.9,1.5c-0.6-0.2-1.3-0.4-1.9-0.6C107.9,1.3,108.6,1.8,108.9,1.5z"/>
<path class="st1" d="M50.7,86.1c0.1,0.2,0.2,0.3,0.4,0.4C50.9,86.1,50.8,86,50.7,86.1z"/>
<path class="st1" d="M104.7,0.7c0.1,0.1,0.3,0.1,0.4,0.1c0.6-0.1,1.3,0,1.9,0.1C106.3,0.6,105.5,0.5,104.7,0.7z"/>
<path class="st1" d="M146.4,89.4c0-0.1,0.1-0.1,0.1-0.2C146.4,89.3,146.4,89.3,146.4,89.4z"/>
<path class="st1" d="M155.8,66c0,0.3-0.1,0.7-0.2,1C155.6,66.7,155.7,66.3,155.8,66z"/>
<path class="st1" d="M125.5,6.6C126,6.9,125.6,6.6,125.5,6.6z"/>
<path class="st1" d="M127.4,9.1L127.4,9.1z"/>
<path class="st1" d="M98.8,3.3"/>
<path class="st1" d="M126.2,7.2c-0.2-0.1-0.4-0.3-0.6-0.4C125.7,6.8,125.9,6.9,126.2,7.2z"/>
<path class="st1" d="M126.2,7c0.2,0.1,0.3,0.2,0.5,0.3C126.7,7.2,126.7,7.1,126.2,7z"/>
<path class="st1" d="M124.8,6.2c0.3,0.1,0.5,0.3,0.8,0.5l-0.1-0.1C125.4,6.5,125.1,6.4,124.8,6.2z"/>
<path class="st1" d="M107.9,112.9L107.9,112.9C108.6,112.7,108.3,112.7,107.9,112.9z"/>
<path class="st1" d="M61.5,22.2"/>
<path class="st1" d="M60.4,23.9c0.1-0.7,0.5-1.3,1.1-1.7l-1.4-0.3L60.4,23.9z"/>
<path class="st1" d="M47.6,48.4c-0.1,0.1-0.1,0.1-0.2,0.1C47.4,48.7,47.5,48.8,47.6,48.4z"/>
<path class="st1" d="M70.2,102.8"/>
<path class="st1" d="M91.5,6c-0.4,0-0.6-0.1-0.8-0.1C90.7,6,90.9,6,91.5,6z"/>
<path class="st1" d="M130.9,9.6L129.8,9c0.3,0.2,0.6,0.4,0.9,0.7C130.7,9.6,130.5,9.4,130.9,9.6z"/>
<path class="st1" d="M138.3,17.9c0.2,0.1,0.3,0.3,0.4,0.4v-0.1C138.2,17.6,137.7,17.3,138.3,17.9z"/>
<path class="st1" d="M131.3,11.2c-0.1,0.3,0.7,0.6,1.4,1.1l-0.1-0.1c0.2-0.1,0.1-0.2-0.1-0.4L131.3,11.2z"/>
<path class="st1" d="M132.8,12.4c0.2,0.2,0.5,0.3,0.6,0.5C133.6,12.9,133.2,12.7,132.8,12.4z"/>
<path class="st1" d="M123.7,5.9c0.4,0.3,0.4-0.3,0.6,0c0.3-0.1-0.4-0.3-0.9-0.4c-0.2-0.1-0.5,0-0.4,0C122.9,5.6,123.1,5.7,123.7,5.9
	z"/>
<polygon class="st1" points="131.3,12.4 131.3,11.9 130.7,11.9 "/>
<path class="st1" d="M125.5,8.7l1.2,0.7c0-0.1,0.2,0,0.4,0.1C126.6,9.2,126.1,8.9,125.5,8.7z"/>
<path class="st1" d="M127.1,9.5l1,0.5C127.8,9.8,127.5,9.6,127.1,9.5z"/>
<polygon class="st1" points="129.7,11.5 129.4,11.2 128.5,10.7 "/>
<path class="st1" d="M111.4,3.7l-1.5-0.1c-0.2,0.1,0.2,0.3,0.8,0.3C111,3.9,111.6,3.9,111.4,3.7z"/>
<path class="st1" d="M115.6,6c-0.4-0.2-0.4-0.3-0.5-0.5L114.9,6H115.6z"/>
<path class="st1" d="M111.3,5.1c-0.2,0.1-2.2,0.2-0.4,0.4C111.1,5.4,112.6,5.5,111.3,5.1z"/>
<polygon class="st1" points="88.9,4.7 89.2,4.6 89,3.6 "/>
<path class="st1" d="M71.9,14.5c1.6-0.7,0-0.8,1.5-1.3c0.2-0.4-1.2,0.4-1,0C71.7,14,71.1,14.2,71.9,14.5z"/>
<path class="st1" d="M72.4,13.2c0.1-0.1,0.2-0.3,0.4-0.4C72.6,13,72.5,13.2,72.4,13.2z"/>
<polygon class="st1" points="156.2,61.7 156.3,60.6 156.2,61.3 "/>
<path class="st1" d="M156.3,59.5l0.1-0.3v-0.7C156.3,58.8,156.3,59.2,156.3,59.5z"/>
<path class="st1" d="M50,73.1L49.8,73c-0.1,0.2,0,0.4,0.1,1L50,73.1z"/>
<polygon class="st1" points="55.6,86.9 55.5,86.7 55.4,87.3 "/>
<path class="st1" d="M63.7,96.4c-0.4-0.3-0.8-0.7-1.2-1.1C63.3,96.1,63.5,96.9,63.7,96.4z"/>
<text transform="matrix(1 0 0 1 51.07 72.88)" class="st0 st2 st3">E.L.S.</text>
<text transform="matrix(1 0 0 1 51.07 72.88)" class="st4 st2 st3">E.L.S.</text>
<text transform="matrix(1 0 0 1 12.98 62.02)" class="st1 st2 st5">ES</text>
<text transform="matrix(1 0 0 1 25.61 62.02)" class="st1 st2 st5">T</text>
<text transform="matrix(1 0 0 1 33.38 62.02)" class="st1 st2 st5">.</text>
<text transform="matrix(1 0 0 1 161.71 62.02)" class="st2 st5">2020</text>
</svg>
